<svg width="1267" height="510" viewBox="0 0 1267 510" fill="none" xmlns="http://www.w3.org/2000/svg">
<rect width="1267" height="510" rx="5" fill="#0961F5"/>
<path fill-rule="evenodd" clip-rule="evenodd" d="M341 510C341 510 612.149 474.542 658.193 463.196C704.238 451.85 678.657 393.699 729.818 393.699C780.978 393.699 911.436 451.85 990.735 451.85C1070.03 451.85 1108.4 319.948 1141.66 319.948C1174.91 319.948 1195.38 393.699 1226.07 393.699C1256.77 393.699 1267 293 1267 293V490C1267 501.046 1258.05 510 1247 510H341Z" fill="#1A6EFC"/>
<path fill-rule="evenodd" clip-rule="evenodd" d="M0 182.482V20C0 8.95432 8.95431 0 20 0H791C791 0 661.702 110.338 595.785 91.9481C529.869 73.5584 511.687 36.9146 420.853 52.3397C330.019 67.7647 360.148 131.859 304.231 141.459C248.314 151.059 177.468 89.1189 141.974 101.85C106.481 114.581 98.1266 194.046 81.1282 203.7C64.1298 213.354 0 182.482 0 182.482Z" fill="#1A6EFC"/>
<path d="M624.948 2.46212L564.625 79.7046" stroke="#1A6EFC" stroke-width="2" stroke-linecap="round" stroke-linejoin="round"/>
<path d="M616.457 68.7333L569.031 125.003" stroke="#1A6EFC" stroke-width="2" stroke-linecap="round" stroke-linejoin="round"/>
<path d="M708.003 217.797C707.875 217.592 707.65 217.467 707.408 217.467C707.166 217.467 706.941 217.592 706.814 217.797L692.736 240.464C692.602 240.68 692.595 240.951 692.719 241.173C692.842 241.396 693.076 241.533 693.331 241.533H721.486C721.74 241.533 721.974 241.396 722.098 241.173C722.221 240.951 722.215 240.68 722.081 240.464L708.003 217.797Z" stroke="#1A6EFC" stroke-width="1.4" stroke-linejoin="round"/>
<ellipse cx="791.875" cy="102" rx="70.3889" ry="14.1667" stroke="#1A6EFC" stroke-width="2"/>
</svg>
