<svg width="32" height="32" viewBox="0 0 32 32" fill="none" xmlns="http://www.w3.org/2000/svg">
<path d="M14.2293 15.2917L24.2522 5.26876C24.5355 4.98542 24.8661 4.84376 25.2438 4.84376C25.6216 4.84376 25.9522 4.98542 26.2355 5.26876C26.5188 5.55209 26.6605 5.88265 26.6605 6.26042C26.6605 6.6382 26.5188 6.96876 26.2355 7.25209L16.248 17.275L14.2293 15.2917ZM17.7355 18.7979L26.7313 9.76667C27.0147 9.48334 27.3511 9.34167 27.7407 9.34167C28.1303 9.34167 28.4668 9.48334 28.7501 9.76667C29.0334 10.05 29.1751 10.3865 29.1751 10.776C29.1751 11.1656 29.0334 11.5021 28.7501 11.7854L19.7543 20.7813L17.7355 18.7979ZM6.47301 25.5271C4.3244 23.3785 3.2501 20.7931 3.2501 17.7708C3.2501 14.7486 4.3244 12.1632 6.47301 10.0146L10.723 5.76459L12.8126 7.85417C12.9779 8.01945 13.1195 8.19063 13.2376 8.36771C13.3557 8.5448 13.4737 8.72778 13.5918 8.91667L18.8334 3.63959C19.1168 3.35626 19.4532 3.21459 19.8428 3.21459C20.2324 3.21459 20.5688 3.35626 20.8522 3.63959C21.1355 3.92292 21.2772 4.25938 21.2772 4.64896C21.2772 5.03855 21.1355 5.37501 20.8522 5.65834L14.7251 11.7854L11.7147 14.7604L12.3876 15.4333C13.4737 16.5195 13.9932 17.8181 13.9459 19.3292C13.8987 20.8403 13.3202 22.1507 12.2105 23.2604L10.1918 21.2771C10.7348 20.734 11.0359 20.0906 11.0949 19.3469C11.1539 18.6031 10.9119 17.9597 10.3688 17.4167L8.70426 15.7875C8.42093 15.5042 8.27926 15.1677 8.27926 14.7781C8.27926 14.3885 8.42093 14.0521 8.70426 13.7688L10.723 11.7854C11.0063 11.5021 11.148 11.1656 11.148 10.776C11.148 10.3865 11.0063 10.05 10.723 9.76667L8.45635 12.0333C6.85079 13.6389 6.04801 15.5573 6.04801 17.7885C6.04801 20.0198 6.85079 21.9382 8.45635 23.5438C10.0619 25.1493 11.9862 25.9521 14.2293 25.9521C16.4723 25.9521 18.3966 25.1493 20.0022 23.5438L28.4668 15.0438C28.7501 14.7604 29.0866 14.6188 29.4761 14.6188C29.8657 14.6188 30.2022 14.7604 30.4855 15.0438C30.7688 15.3271 30.9105 15.6635 30.9105 16.0531C30.9105 16.4427 30.7688 16.7792 30.4855 17.0625L21.9855 25.5271C19.8369 27.6757 17.2515 28.75 14.2293 28.75C11.207 28.75 8.62162 27.6757 6.47301 25.5271ZM23.0834 31.6188V28.75C24.6418 28.75 25.9758 28.1951 27.0855 27.0854C28.1952 25.9757 28.7501 24.6417 28.7501 23.0833H31.6188C31.6188 25.4445 30.7866 27.4573 29.122 29.1219C27.4574 30.7865 25.4445 31.6188 23.0834 31.6188ZM0.381348 8.91667C0.381348 6.55556 1.21364 4.54271 2.87822 2.87813C4.54281 1.21355 6.55565 0.381256 8.91676 0.381256V3.25001C7.35843 3.25001 6.0244 3.80487 4.91468 4.91459C3.80496 6.02431 3.2501 7.35834 3.2501 8.91667H0.381348Z" fill="#171A1F"/>
</svg>
