<svg width="24" height="24" viewBox="0 0 24 24" fill="none" xmlns="http://www.w3.org/2000/svg">
<g clip-path="url(#clip0_2_20566)">
<path d="M5 6H19C19.5523 6 20 5.55228 20 5C20 4.44772 19.5523 4 19 4H5C4.44771 4 4 4.44772 4 5C4 5.55228 4.44771 6 5 6Z" fill="#141C24"/>
<path d="M20 7V5C20 4.44772 19.5523 4 19 4C18.4477 4 18 4.44772 18 5V7C18 7.55228 18.4477 8 19 8C19.5523 8 20 7.55228 20 7Z" fill="#141C24"/>
<path d="M6 7V5C6 4.44772 5.55228 4 5 4C4.44772 4 4 4.44772 4 5V7C4 7.55228 4.44772 8 5 8C5.55228 8 6 7.55228 6 7Z" fill="#141C24"/>
<path d="M8 14.0004C7.84476 14.0004 7.69164 13.9643 7.55279 13.8948C7.41393 13.8254 7.29315 13.7246 7.2 13.6004C7.12121 13.4954 7.06388 13.3758 7.03129 13.2486C6.99869 13.1214 6.99148 12.989 7.01005 12.859C7.02862 12.729 7.07262 12.6039 7.13953 12.4909C7.20643 12.3779 7.29494 12.2792 7.4 12.2004L11.4 9.20041C11.5713 9.07526 11.7779 9.00781 11.99 9.00781C12.2021 9.00781 12.4087 9.07526 12.58 9.20041L16.58 12.0204C16.7956 12.1733 16.9419 12.4054 16.9868 12.6659C17.0318 12.9264 16.9718 13.194 16.82 13.4104C16.7442 13.5186 16.6478 13.6106 16.5362 13.6813C16.4246 13.752 16.3002 13.7999 16.17 13.8222C16.0399 13.8445 15.9066 13.8408 15.7778 13.8113C15.6491 13.7818 15.5275 13.7271 15.42 13.6504L12 11.2404L8.6 13.8004C8.4269 13.9302 8.21637 14.0004 8 14.0004Z" fill="#141C24"/>
<path d="M12 21C11.7348 21 11.4804 20.8946 11.2929 20.7071C11.1054 20.5196 11 20.2652 11 20V12C11 11.7348 11.1054 11.4804 11.2929 11.2929C11.4804 11.1054 11.7348 11 12 11C12.2652 11 12.5196 11.1054 12.7071 11.2929C12.8946 11.4804 13 11.7348 13 12V20C13 20.2652 12.8946 20.5196 12.7071 20.7071C12.5196 20.8946 12.2652 21 12 21Z" fill="#141C24"/>
</g>
<defs>
<clipPath id="clip0_2_20566">
<rect width="24" height="24" fill="white"/>
</clipPath>
</defs>
</svg>
